# xmcd
#
# Track frame offsets:
#	150
#	15158
#	27386
#	40787
#	56357
#	68295
#	80209
#	90642
#	100819
#	114017
#	128733
#	143906
#	158218
#	172646
#	184974
#	201320
#	213773
#	224030
#	235265
#	245591
#	260313
#	272380
#	286412
#	296160
#	309070
#	325424
#	338008
#
# Disc length: 4661 seconds
#
# Revision: 1
# Processed by: cddbd v1.5.2PL0 Copyright (c) Steve Scherf et al.
# Submitted via: audiograbber 1.83.01
#
DISCID=7612331b
DTITLE=Predrag Cune Gojkovic - Yu Mexikanci
DYEAR=2001
DGENRE=Folk
TTITLE0=01. Mama Huanita
TTITLE1=02. Jedan dan zivota
TTITLE2=03. Ja Pijem Casu Gorkih Suza
TTITLE3=04. Marika
TTITLE4=05. Pesma majci
TTITLE5=06. Pesma karabina
TTITLE6=07. Poslednja zelja
TTITLE7=08. Samo Jedan Dan Zivota
TTITLE8=09. Sutra ce biti nasa svadba
TTITLE9=10. Sta Te Briga Kako Zivim
TTITLE10=11. Zasto da cuvam tajnu
TTITLE11=12. Siromah sam druze
TTITLE12=13. Poslednja pesma
TTITLE13=14. Prolaze dani, prolazi mladost
TTITLE14=15. Pozdravi, vetre, moju majku
TTITLE15=16. Zbog tebe moram da pijem
TTITLE16=17. Ostani jos jedan dan
TTITLE17=18. Moj Meksiko
TTITLE18=19. Pevaj golubice
TTITLE19=20. Divna Guadalahara
TTITLE20=21. Dodji draga
TTITLE21=22. Ljudi me pitaju
TTITLE22=23. Mala avantura
TTITLE23=24. Malkerida
TTITLE24=25.Nezenja
TTITLE25=26. Vrati se
TTITLE26=27. Kad cujes trubu
EXTD=
EXTT0=
EXTT1=
EXTT2=
EXTT3=
EXTT4=
EXTT5=
EXTT6=
EXTT7=
EXTT8=
EXTT9=
EXTT10=
EXTT11=
EXTT12=
EXTT13=
EXTT14=
EXTT15=
EXTT16=
EXTT17=
EXTT18=
EXTT19=
EXTT20=
EXTT21=
EXTT22=
EXTT23=
EXTT24=
EXTT25=
EXTT26=
PLAYORDER=
